#!OML:ASF E:\Style4\Style4.ASF
:FULLY-SPECIFIED
:DEGREES
1928
root 1.00065 18.0988 -0.0420013 4.16967 -9.60343 7.04345
lowerback 3.58323 2.18834 6.57081
upperback -3.48122 3.3842 1.18688
thorax -5.33762 1.44094 -2.70562
lowerneck 2.99258 -1.7022 -6.61085
upperneck 5.08032 -2.56741 4.65703
head 1.24993 -1.35576 2.63101
rclavicle -1.34677e-014 -3.49861e-014
rhumerus -87.526 50.9309 -119.028
rradius 91.4506
rwrist -4.64182
rhand 3.74672 26.7724
rfingers 7.12502
rthumb 29.1739 -0.96131
lclavicle -1.34677e-014 -3.49861e-014
lhumerus -30.3137 21.9967 24.6345
lradius 108.386
lwrist -13.8731
lhand -10.4384 36.1202
lfingers 7.12502
lthumb 15.5615 65.5142
rfemur -9.98453 12.3363 6.44472
rtibia 21.6582
rfoot -15.787 -14.5973
rtoes -17.2804
lfemur 4.53854 1.37624 -30.7852
ltibia -1.11319e-014
lfoot -11.1713 14.4072
ltoes -11.7897
1929
root 0.999089 18.0945 -0.0294942 4.02441 -9.45945 7.12617
lowerback 3.57183 2.12399 6.54091
upperback -3.45301 3.29285 1.1601
thorax -5.30953 1.39799 -2.70933
lowerneck 3.0621 -1.68308 -6.64108
upperneck 5.15976 -2.5478 4.63618
head 1.2623 -1.34814 2.63028
rclavicle 1.5704e-014 -1.27222e-014
rhumerus -87.4159 50.9275 -118.971
rradius 91.4687
rwrist -4.69685
rhand 4.04556 26.8441
rfingers 7.12502
rthumb 29.4592 -0.839774
lclavicle 1.5704e-014 -1.27222e-014
lhumerus -30.6237 21.9456 24.807
lradius 108.77
lwrist -13.903
lhand -10.6298 36.147
lfingers 7.12502
lthumb 15.3771 65.5552
rfemur -9.74351 12.3005 6.4155
rtibia 21.6879
rfoot -15.8923 -14.691
rtoes -17.4448
lfemur 4.74056 1.25501 -30.862
ltibia -2.06736e-014
lfoot -11.1786 14.3461
ltoes -11.2186
1930
root 0.99561 18.0911 -0.0193485 3.94346 -9.38845 7.08265
lowerback 3.55413 2.08791 6.61157
upperback -3.43625 3.24622 1.15325
thorax -5.2824 1.3733 -2.75121
lowerneck 3.04108 -1.66129 -6.60086
upperneck 5.28405 -2.51669 4.56484
head 1.30196 -1.33332 2.59878
rclavicle -7.7526e-015 3.18055e-015
rhumerus -87.2599 50.918 -118.903
rradius 91.4878
rwrist -4.79795
rhand 4.30186 26.7704
rfingers 7.12502
rthumb 29.7038 -0.870064
lclavicle -7.7526e-015 3.18055e-015
lhumerus -30.9499 21.9188 24.9536
lradius 109.161
lwrist -13.9997
lhand -10.5732 35.9691
lfingers 7.12502
lthumb 15.4317 65.373
rfemur -9.60677 12.3081 6.51829
rtibia 21.7289
rfoot -15.9071 -14.8161
rtoes -17.5605
lfemur 4.8784 1.20543 -30.7975
ltibia 6.36111e-015
lfoot -11.333 14.3767
ltoes -11.3257
1931
root 0.992446 18.088 -0.0111709 3.88926 -9.41809 7.03694
lowerback 3.52167 2.09415 6.66959
upperback -3.41712 3.25344 1.13745
thorax -5.23933 1.3762 -2.79836
lowerneck 2.96373 -1.65128 -6.60296
upperneck 5.44357 -2.5011 4.54151
head 1.36553 -1.32627 2.59102
rclavicle -2.09718e-014 2.38542e-014
rhumerus -87.0696 50.8899 -118.798
rradius 91.4927
rwrist -4.97872
rhand 4.37498 26.6393
rfingers 7.12502
rthumb 29.7736 -0.988672
lclavicle -2.09718e-014 2.38542e-014
lhumerus -31.2631 21.8938 25.0914
lradius 109.552
lwrist -14.1094
lhand -10.348 35.9248
lfingers 7.12502
lthumb 15.6485 65.3119
rfemur -9.54873 12.3263 6.5983
rtibia 21.787
rfoot -15.964 -14.793
rtoes -17.6861
lfemur 4.97578 1.24958 -30.7388
ltibia -1.27222e-014
lfoot -11.463 14.4088
ltoes -11.4882
1932
root 0.989434 18.0854 -0.00369631 3.81041 -9.43904 7.06485
lowerback 3.50841 2.09517 6.64535
upperback -3.40025 3.24976 1.10342
thorax -5.21337 1.37595 -2.81903
lowerneck 2.96279 -1.64131 -6.61314
upperneck 5.52511 -2.48995 4.54808
head 1.39163 -1.32149 2.59531
rclavicle -2.23633e-014 6.52014e-014
rhumerus -86.9398 50.833 -118.734
rradius 91.4899
rwrist -5.01802
rhand 4.25605 26.5263
rfingers 7.12502
rthumb 29.6601 -1.12199
lclavicle -2.23633e-014 6.52014e-014
lhumerus -31.5131 21.872 25.2075
lradius 109.857
lwrist -13.9431
lhand -10.3315 35.8729
lfingers 7.12502
lthumb 15.6644 65.2588
rfemur -9.47115 12.2809 6.59503
rtibia 21.8304
rfoot -16.0071 -14.713
rtoes -17.707
lfemur 5.08162 1.28286 -30.7718
ltibia 2.22639e-014
lfoot -11.3609 14.4116
ltoes -11.4474
1933
root 0.985362 18.0831 0.00274653 3.7151 -9.41426 7.12032
lowerback 3.52129 2.08974 6.58097
upperback -3.37061 3.2369 1.07285
thorax -5.19179 1.37287 -2.81411
lowerneck 3.05091 -1.65026 -6.47961
upperneck 5.42977 -2.4959 4.3698
head 1.34 -1.32392 2.51081
rclavicle -6.82825e-014 -3.49861e-014
rhumerus -86.7878 50.8021 -118.622
rradius 91.4574
rwrist -5.03925
rhand 4.11836 26.5457
rfingers 7.12502
rthumb 29.5287 -1.12585
lclavicle -6.82825e-014 -3.49861e-014
lhumerus -31.7323 21.8807 25.2935
lradius 110.13
lwrist -13.6024
lhand -10.239 35.6261
lfingers 7.12502
lthumb 15.7535 65.005
rfemur -9.36399 12.194 6.57497
rtibia 21.8691
rfoot -16.0425 -14.65
rtoes -17.771
lfemur 5.19725 1.27169 -30.826
ltibia 1.11319e-014
lfoot -11.2324 14.4414
ltoes -11.6131
1934
root 0.983288 18.0812 0.00880376 3.5823 -9.37734 7.06887
lowerback 3.60641 2.08873 6.67644
upperback -3.33676 3.24545 1.04523
thorax -5.19795 1.37332 -2.89954
lowerneck 3.01089 -1.67326 -6.43371
upperneck 5.47181 -2.52101 4.2894
head 1.35965 -1.33634 2.47489
rclavicle -1.42628e-014 -1.59028e-014
rhumerus -86.6631 50.7288 -118.554
rradius 91.4166
rwrist -5.10326
rhand 4.04543 26.6004
rfingers 7.12502
rthumb 29.4591 -1.08348
lclavicle -1.42628e-014 -1.59028e-014
lhumerus -31.8847 21.8731 25.3861
lradius 110.387
lwrist -13.308
lhand -10.0682 35.5614
lfingers 7.12502
lthumb 15.918 64.9272
rfemur -9.19048 12.0987 6.67814
rtibia 21.8921
rfoot -16.0371 -14.5808
rtoes -17.9408
lfemur 5.373 1.26553 -30.764
ltibia 1.27222e-014
lfoot -11.1886 14.4685
ltoes -11.8882
1935
root 0.982883 18.0772 0.0151489 3.36257 -9.34647 7.05048
lowerback 3.77508 2.0728 6.75513
upperback -3.28056 3.23861 1.00405
thorax -5.22978 1.36608 -2.99208
lowerneck 2.8698 -1.67482 -6.54692
upperneck 5.58253 -2.52278 4.39427
head 1.42428 -1.33777 2.53035
rclavicle -2.98674e-014 1.90833e-014
rhumerus -86.5146 50.6075 -118.442
rradius 91.3687
rwrist -5.06203
rhand 4.17363 26.7801
rfingers 7.12502
rthumb 29.5815 -0.882097
lclavicle -2.98674e-014 1.90833e-014
lhumerus -32.0323 21.8582 25.4243
lradius 110.572
lwrist -13.1693
lhand -9.83933 35.4497
lfingers 7.12502
lthumb 16.1384 64.7978
rfemur -8.90906 12.0848 6.75673
rtibia 21.8865
rfoot -16.0349 -14.5903
rtoes -18.1666
lfemur 5.64596 1.27877 -30.7411
ltibia 1.43125e-014
lfoot -11.288 14.417
ltoes -11.4066
